<svg xmlns="http://www.w3.org/2000/svg" width="512" height="512" viewBox="0 0 512 512">
  <defs>
    <linearGradient id="g" x1="120" y1="90" x2="420" y2="440" gradientUnits="userSpaceOnUse">
      <stop offset="0" stop-color="#ff8a5b" />
      <stop offset="1" stop-color="#ffb45b" />
    </linearGradient>
    <filter id="shadow" x="-20%" y="-20%" width="140%" height="140%">
      <feDropShadow dx="0" dy="14" stdDeviation="14" flood-color="#000" flood-opacity="0.35" />
    </filter>
  </defs>

  <rect width="512" height="512" rx="112" fill="#0f172a" />
  <rect x="92" y="92" width="328" height="328" rx="92" fill="url(#g)" filter="url(#shadow)" />

  <g fill="#0b1022">
    <path d="M182 205c0-18 14-32 32-32h74c44 0 74 22 74 58c0 23-13 41-35 50l44 58c6 8 1 19-9 19h-34c-5 0-9-2-12-6l-44-61h-39v35c0 10-8 18-18 18h-27c-10 0-18-8-18-18zm51 38h66c18 0 28-9 28-24c0-16-10-25-28-25h-66z"/>
  </g>

  <text x="256" y="406" text-anchor="middle" font-family="Poppins, system-ui, -apple-system, Segoe UI, Roboto, Arial, sans-serif" font-size="56" font-weight="800" fill="#e8eefc" opacity="0.9">
    Expnse
  </text>
</svg>
